<?xml version="1.0" encoding="utf-8"?>
<!-- Generator: Adobe Illustrator 17.0.2, SVG Export Plug-In . SVG Version: 6.00 Build 0)  -->
<!DOCTYPE svg PUBLIC "-//W3C//DTD SVG 1.1//EN" "http://www.w3.org/Graphics/SVG/1.1/DTD/svg11.dtd">
<svg version="1.1" id="Camada_1" xmlns="http://www.w3.org/2000/svg" xmlns:xlink="http://www.w3.org/1999/xlink" x="0px" y="0px"
	 width="258.688px" height="83.333px" viewBox="0 0 258.688 83.333" enable-background="new 0 0 258.688 83.333"
	 xml:space="preserve">
<g>
	<g>
		<path fill="#010101" d="M100.662,26.223c0-2.771,2.206-4.978,4.978-4.978c2.772,0,5.035,2.206,5.035,4.978
			c0,2.772-2.263,5.034-5.035,5.034C102.868,31.258,100.662,28.995,100.662,26.223z M101.285,61.011V33.689h8.711v27.322H101.285z"
			/>
		<path fill="#010101" d="M133.129,61.011V45.229c0-3.337-1.753-4.524-4.468-4.524c-2.603,0-4.299,1.414-5.318,2.658v17.648h-8.71
			V33.689h8.71v3.338c1.64-1.923,4.865-4.017,9.502-4.017c6.166,0,8.995,3.621,8.995,8.655v19.345H133.129z"/>
		<path fill="#010101" d="M145.856,26.223c0-2.771,2.205-4.978,4.978-4.978c2.772,0,5.035,2.206,5.035,4.978
			c0,2.772-2.263,5.034-5.035,5.034C148.061,31.258,145.856,28.995,145.856,26.223z M146.478,61.011V33.689h8.712v27.322H146.478z"
			/>
		<path fill="#010101" d="M161.638,53.658V41.213h-4.526v-7.524h4.526v-7.466h8.71v7.466h5.543v7.524h-5.543v10.012
			c0,1.584,0.905,2.771,2.377,2.771c0.96,0,1.921-0.339,2.205-0.678l1.694,6.562c-1.074,1.018-3.22,1.809-6.448,1.809
			C164.634,61.69,161.638,58.919,161.638,53.658z"/>
		<path fill="#F04C4B" d="M176.172,57.448l3.623-6.222c2.035,1.81,6.39,3.677,9.616,3.677c2.602,0,3.676-0.735,3.676-1.923
			c0-3.394-15.895,0.113-15.895-10.973c0-4.808,4.186-8.995,11.709-8.995c4.639,0,8.486,1.472,11.426,3.621l-3.338,6.166
			c-1.639-1.584-4.749-2.998-8.03-2.998c-2.037,0-3.394,0.793-3.394,1.867c0,2.998,15.837-0.113,15.837,11.087
			c0,5.203-4.582,8.937-12.388,8.937C184.093,61.69,179.059,60.05,176.172,57.448z"/>
		<path fill="#F04C4B" d="M202.42,47.323c0-7.919,5.939-14.312,14.481-14.312c8.088,0,13.97,5.94,13.97,15.217v1.979h-19.458
			c0.624,2.433,2.884,4.469,6.845,4.469c1.923,0,5.09-0.848,6.673-2.319l3.792,5.713c-2.715,2.433-7.238,3.621-11.426,3.621
			C208.867,61.69,202.42,56.203,202.42,47.323z M216.9,40.026c-3.79,0-5.261,2.262-5.601,4.241h11.256
			C222.33,42.345,220.916,40.026,216.9,40.026z"/>
		<path fill="#F04C4B" d="M231.718,47.323c0-8.542,6.335-14.312,14.878-14.312c5.939,0,9.559,2.603,11.2,5.036l-5.657,5.26
			c-1.074-1.583-2.827-2.602-5.148-2.602c-3.619,0-6.391,2.488-6.391,6.618c0,4.129,2.772,6.674,6.391,6.674
			c2.321,0,4.074-1.13,5.148-2.658l5.657,5.317c-1.641,2.376-5.261,5.034-11.2,5.034C238.052,61.69,231.718,55.864,231.718,47.323z"
			/>
	</g>
	<g>
		<path fill="#CF4241" d="M41.362,82.507c-2.164,0-4.248-0.364-5.871-1.025l-22.649-9.236c-3.75-1.53-6.889-5.723-7.296-9.756
			L0.926,16.782C0.465,12.23,3.755,7.877,8.26,7.073l27.368-5.78c1.496-0.265,3.441-0.411,5.482-0.411
			c2.045,0,3.99,0.146,5.482,0.411l27.371,5.78c4.502,0.803,7.794,5.156,7.335,9.708l-4.622,45.708
			c-0.404,4.021-3.528,8.225-7.259,9.78L47.36,81.441C45.704,82.128,43.574,82.507,41.362,82.507z"/>
		<path fill="#E04949" d="M71.394,61.261c-0.255,2.517-2.369,5.366-4.705,6.337l-20.595,8.564c-2.335,0.967-6.157,0.984-8.497,0.029
			l-21.149-8.625c-2.339-0.952-4.464-3.789-4.713-6.306L7.419,18.577c-0.254-2.511,1.574-4.931,4.061-5.375l25.559-5.395
			c2.489-0.444,6.558-0.444,9.047,0l25.562,5.395c2.485,0.444,4.315,2.864,4.059,5.375L71.394,61.261z"/>
		<polygon fill="#FFFFFF" points="65.378,29.67 57.86,22.786 38.514,43.927 26.179,32.036 19.106,39.377 38.681,58.244 
			38.878,58.036 39.171,58.306 		"/>
		<polygon opacity="0.1" fill="#7B7878" points="69.312,33.604 61.794,26.72 42.446,47.861 30.113,35.969 23.038,43.309 
			42.613,62.176 42.811,61.969 43.105,62.24 		"/>
	</g>
</g>
</svg>
